<?xml version="1.0" encoding="utf-8"?>
<svg version="1.1" id="Ebene_4" xmlns="http://www.w3.org/2000/svg" xmlns:xlink="http://www.w3.org/1999/xlink" x="0px"
	 y="0px"
	 viewBox="0 0 48 48" style="enable-background:new 0 0 48 48;" xml:space="preserve">
	<style type="text/css">
		.st0{fill:none;}
		.head{fill:white;}
		.body{fill:white;}
	</style>
	<path class="st0" d="M48,48H0V0h48V48z"/>
	<g>
		<path class="head" d="M24,8c2.5,0,4.5,2,4.5,4.5S26.5,17,24,17s-4.5-2-4.5-4.5S21.5,8,24,8 M24,5c-4.1,0-7.5,3.4-7.5,7.5S19.9,20,24,20
		s7.5-3.4,7.5-7.5S28.1,5,24,5L24,5z"/>
		<path class="body" d="M37,22.2l0,12.7c-3.3,0.4-6.7,1.4-10,3c-1.2,0.6-2.2,1.1-3,1.6c-2.5-1.5-7.2-3.9-13-4.6l0-12.7c6.3,0.9,11.2,4.5,11.2,4.5
		L24,28l1.8-1.4C25.9,26.6,30.6,23.1,37,22.2 M38.3,19c0,0-0.1,0-0.1,0c-8,0.7-14.1,5.3-14.1,5.3S17.9,19.7,9.9,19c0,0-0.1,0-0.1,0
		c-1,0-1.8,0.8-1.8,1.8l0,15.2c0,0.9,0.7,1.7,1.6,1.8C17.8,38.3,24,43,24,43s1.6-1.2,4.3-2.5c2.6-1.2,6.1-2.5,10.1-2.8
		c0.9-0.1,1.6-0.8,1.6-1.8c0-3.5,0-11.6,0-15.2C40,19.8,39.2,19,38.3,19L38.3,19z"/>
	</g>
</svg>
